<svg width="734" height="185" viewBox="0 0 734 185" fill="none" xmlns="http://www.w3.org/2000/svg">
<g clip-path="url(#clip0_1_4)">
<path d="M71.7452 28.7628V17.9791H122.179V28.7628H102.603V88.1595H91.3787V28.7628H71.7645H71.7452Z" fill="white"/>
<path d="M135.294 60.0334V88.1595H124.571V17.9599H135.255V51.0245H132.96C134.426 46.6069 136.47 43.231 139.074 40.8968C141.678 38.5819 144.937 37.4051 148.794 37.4051C151.938 37.4051 154.696 38.1575 157.107 39.6429C159.517 41.1283 161.388 43.3467 162.738 46.2596C164.088 49.1726 164.763 52.78 164.763 57.0433V88.121H154.04V58.9145C154.04 55.2685 153.249 52.5099 151.687 50.6194C150.125 48.7289 147.907 47.8029 145.053 47.8029C143.163 47.8029 141.485 48.2273 140.019 49.0761C138.553 49.9249 137.396 51.256 136.547 53.05C135.699 54.8634 135.274 57.1783 135.274 59.9948L135.294 60.0334Z" fill="white"/>
<path d="M175.255 31.0198C173.442 31.0198 171.938 30.3639 170.723 29.0714C169.508 27.7596 168.91 26.1778 168.91 24.2873C168.91 22.3968 169.508 20.757 170.723 19.4645C171.938 18.1528 173.442 17.5162 175.255 17.5162C177.068 17.5162 178.611 18.1721 179.826 19.4645C181.041 20.7763 181.639 22.3582 181.639 24.2487C181.639 26.1392 181.041 27.7789 179.826 29.0714C178.611 30.3832 177.087 31.0198 175.255 31.0198ZM169.951 88.1402V38.4082H180.675V88.1402H169.951Z" fill="white"/>
<path d="M203.375 89.3749C199.71 89.3749 196.432 88.7383 193.558 87.4651C190.684 86.1919 188.389 84.3206 186.634 81.8321C184.879 79.3436 183.895 76.3342 183.664 72.7847L194.214 72.7461C194.445 75.196 195.313 77.0865 196.837 78.4176C198.36 79.7487 200.462 80.4239 203.143 80.4239C205.824 80.4239 207.733 79.8644 209.218 78.7263C210.703 77.5881 211.436 76.1606 211.436 74.3858C211.436 72.8811 210.896 71.6658 209.797 70.7591C208.717 69.8524 207.213 69.1773 205.323 68.7336L197.647 66.9974C193.384 65.9943 190.144 64.2967 187.945 61.8853C185.747 59.4739 184.648 56.4067 184.648 52.6256C184.648 49.5777 185.38 46.9155 186.846 44.6199C188.312 42.3243 190.414 40.5302 193.114 39.257C195.834 37.9645 199.016 37.3279 202.7 37.3279C206.383 37.3279 209.488 38.0031 212.227 39.3535C214.966 40.7039 217.126 42.6137 218.688 45.0829C220.25 47.5521 221.079 50.4844 221.176 53.8603L211.128 53.8988C211.108 51.6611 210.337 49.8285 208.833 48.3624C207.328 46.8962 205.361 46.1632 202.892 46.1632C200.424 46.1632 198.688 46.7612 197.319 47.938C195.949 49.1147 195.255 50.5422 195.255 52.2398C195.255 53.7252 195.795 54.9213 196.856 55.8665C197.917 56.8118 199.382 57.5063 201.215 57.9307L209.257 59.7633C213.693 60.805 216.952 62.4254 219.054 64.6632C221.137 66.9009 222.198 69.8139 222.198 73.4213C222.198 76.6814 221.388 79.4979 219.787 81.8707C218.187 84.2435 215.949 86.0761 213.095 87.3879C210.241 88.6997 206.981 89.3363 203.297 89.3363L203.375 89.3749Z" fill="white"/>
<path d="M367.347 89.2784C362.969 89.2784 359.131 88.1788 355.833 85.9797C352.535 83.7805 349.989 80.7325 348.157 76.8358C346.325 72.939 345.419 68.4442 345.419 63.3707C345.419 58.2972 346.325 53.7252 348.157 49.7899C349.97 45.8545 352.535 42.7873 355.833 40.5881C359.131 38.389 362.969 37.2894 367.347 37.2894C370.124 37.2894 372.689 37.7523 375.081 38.6783C377.472 39.6043 379.555 40.9161 381.33 42.6137C383.104 44.3113 384.551 46.2982 385.631 48.5939C386.711 50.8895 387.366 53.4359 387.598 56.2331H377.125C376.932 54.9213 376.566 53.7059 376.065 52.5871C375.563 51.4682 374.888 50.5229 374.059 49.7127C373.229 48.9025 372.265 48.2852 371.166 47.8608C370.067 47.4171 368.813 47.2049 367.444 47.2049C365.129 47.2049 363.123 47.8801 361.446 49.2112C359.768 50.5422 358.495 52.4135 357.608 54.8248C356.72 57.2362 356.296 60.072 356.296 63.3707C356.296 66.6694 356.74 69.4859 357.608 71.8973C358.475 74.3087 359.748 76.1799 361.426 77.4724C363.085 78.7842 365.091 79.4208 367.444 79.4208C368.851 79.4208 370.105 79.2086 371.166 78.7842C372.227 78.3598 373.172 77.7424 373.943 76.9515C374.715 76.1413 375.37 75.196 375.891 74.0772C376.412 72.9583 376.797 71.7237 377.048 70.3347H387.636C387.405 73.074 386.769 75.5819 385.708 77.8968C384.647 80.2117 383.22 82.1987 381.407 83.8963C379.594 85.5939 377.492 86.9249 375.12 87.8702C372.728 88.8347 370.144 89.2977 367.347 89.2977V89.2784Z" fill="white"/>
<path d="M414.078 38.4082V47.9765H386.402V38.4082H414.078ZM394.232 24.8467H404.917V73.8842C404.917 75.6397 405.245 76.8743 405.881 77.5881C406.518 78.3019 407.714 78.6491 409.449 78.6491C410.163 78.6491 410.954 78.6491 411.86 78.6298C412.767 78.6298 413.499 78.6105 414.059 78.6105V88.1788H407.617C403.008 88.1788 399.633 87.1564 397.472 85.0923C395.312 83.0281 394.232 79.8644 394.232 75.6011V24.8467Z" fill="white"/>
<path d="M421.715 31.0198C419.902 31.0198 418.398 30.3639 417.183 29.0714C415.968 27.7596 415.351 26.1778 415.351 24.2873C415.351 22.3968 415.968 20.757 417.183 19.4645C418.398 18.1528 419.902 17.5162 421.715 17.5162C423.528 17.5162 425.071 18.1721 426.286 19.4645C427.501 20.7763 428.118 22.3582 428.118 24.2487C428.118 26.1392 427.501 27.7789 426.286 29.0714C425.071 30.3832 423.548 31.0198 421.715 31.0198ZM416.431 88.1402V38.4082H427.154V88.1402H416.431Z" fill="white"/>
<path d="M452.265 89.2784C447.848 89.2784 443.991 88.1788 440.674 85.999C437.357 83.8191 434.772 80.7904 432.94 76.9129C431.108 73.0355 430.182 68.5214 430.182 63.3707C430.182 58.22 431.108 53.6288 432.94 49.7127C434.772 45.7967 437.357 42.7294 440.674 40.5495C443.991 38.3697 447.848 37.2701 452.265 37.2701C456.682 37.2701 460.52 38.3697 463.837 40.5495C467.135 42.7294 469.719 45.7774 471.571 49.7127C473.422 53.6288 474.348 58.1814 474.348 63.3707C474.348 68.56 473.422 73.0355 471.571 76.9129C469.719 80.7904 467.135 83.8191 463.837 85.999C460.539 88.1788 456.682 89.2784 452.265 89.2784ZM452.265 79.3822C454.56 79.3822 456.527 78.7263 458.224 77.4338C459.902 76.122 461.195 74.2701 462.12 71.878C463.046 69.4666 463.49 66.6309 463.49 63.3321C463.49 60.0334 463.027 57.1397 462.12 54.7284C461.195 52.317 459.902 50.4651 458.224 49.1726C456.547 47.8608 454.56 47.2242 452.265 47.2242C449.97 47.2242 447.983 47.8801 446.306 49.1726C444.628 50.4844 443.316 52.3363 442.41 54.7284C441.484 57.1397 441.04 59.9948 441.04 63.3321C441.04 66.6695 441.503 69.5245 442.41 71.8973C443.335 74.2894 444.628 76.122 446.286 77.4338C447.945 78.7456 449.951 79.3822 452.265 79.3822Z" fill="white"/>
<path d="M488.099 60.0334V88.1595H477.376V38.4275H487.887V51.0438H485.765C487.231 46.6262 489.276 43.2503 491.879 40.9161C494.502 38.6012 497.742 37.4244 501.599 37.4244C504.743 37.4244 507.501 38.1768 509.912 39.6622C512.323 41.1476 514.193 43.366 515.544 46.2789C516.894 49.1919 517.569 52.7993 517.569 57.0626V88.1403H506.845V58.9338C506.845 55.2878 506.055 52.5292 504.492 50.6387C502.93 48.7482 500.712 47.8222 497.858 47.8222C495.968 47.8222 494.29 48.2466 492.824 49.0954C491.358 49.9442 490.201 51.2753 489.353 53.0694C488.504 54.8827 488.08 57.1976 488.08 60.0141L488.099 60.0334Z" fill="white"/>
<path d="M550.857 88.1402L533.827 17.9599H545.65L554 55.7701C554.56 58.4708 555.1 61.1715 555.64 63.853C556.161 66.5344 556.662 69.2158 557.144 71.878C557.626 74.5401 558.07 77.2409 558.494 79.9223H556.508C556.99 77.2216 557.472 74.5401 557.973 71.878C558.475 69.2158 558.996 66.5344 559.536 63.853C560.095 61.1715 560.654 58.4708 561.252 55.7701L569.931 17.9599H581.715L590.355 55.7701C590.972 58.4708 591.57 61.1715 592.11 63.853C592.67 66.5344 593.19 69.2158 593.692 71.878C594.193 74.5401 594.714 77.2409 595.215 79.9223H593.055C593.499 77.2216 593.981 74.5401 594.483 71.878C594.984 69.2158 595.485 66.5344 596.006 63.853C596.527 61.1715 597.067 58.4708 597.645 55.7701L605.958 17.9599H617.858L600.789 88.1402H588.118L578.456 47.5521C577.742 44.6392 577.086 41.5141 576.469 38.196C575.852 34.878 575.158 31.2706 574.386 27.3352H577.26C576.488 31.2513 575.813 34.878 575.177 38.196C574.56 41.5141 573.885 44.6199 573.19 47.5521L563.566 88.1402H550.857Z" fill="white"/>
<path d="M624.106 31.0198C622.293 31.0198 620.789 30.3639 619.574 29.0714C618.359 27.7596 617.742 26.1778 617.742 24.2873C617.742 22.3968 618.359 20.757 619.574 19.4645C620.789 18.1528 622.293 17.5162 624.106 17.5162C625.919 17.5162 627.462 18.1721 628.677 19.4645C629.892 20.7763 630.509 22.3582 630.509 24.2487C630.509 26.1392 629.892 27.7789 628.677 29.0714C627.462 30.3832 625.939 31.0198 624.106 31.0198ZM618.822 88.1402V38.4082H629.545V88.1402H618.822Z" fill="white"/>
<path d="M645.379 17.9599V88.1402H634.656V17.9599H645.379Z" fill="white"/>
<path d="M661.194 17.9599V88.1402H650.471V17.9599H661.194Z" fill="white"/>
<path d="M0 165.304V95.1236H11.2247V124.079H40.2892V95.1236H51.5138V165.304H40.2892V134.882H11.2247V165.304H0Z" fill="white"/>
<path d="M70.8388 166.114C67.8687 166.114 65.2265 165.555 62.8928 164.436C60.5592 163.317 58.727 161.658 57.3962 159.44C56.0654 157.221 55.4097 154.482 55.4097 151.222C55.4097 148.367 55.8919 146.013 56.8369 144.161C57.7819 142.309 59.0741 140.824 60.7134 139.743C62.3528 138.644 64.2236 137.814 66.3451 137.255C68.4666 136.696 70.6845 136.29 72.9988 136.04C75.7375 135.692 77.9169 135.384 79.5562 135.114C81.1763 134.844 82.3334 134.458 83.0278 133.937C83.7221 133.416 84.0692 132.587 84.0692 131.41V131.082C84.0692 129.674 83.7413 128.42 83.1242 127.32C82.4877 126.221 81.562 125.352 80.3277 124.735C79.0933 124.099 77.6276 123.79 75.9497 123.79C74.2718 123.79 72.7096 124.099 71.3981 124.735C70.0866 125.372 69.0452 126.221 68.293 127.301C67.5408 128.381 67.0972 129.635 66.9815 131.043H56.7212C56.8947 127.745 57.7819 124.87 59.3634 122.401C60.9642 119.932 63.1821 118.022 66.0365 116.652C68.8909 115.283 72.266 114.607 76.1618 114.607C79.0741 114.607 81.6777 114.993 83.9728 115.765C86.2679 116.536 88.2158 117.655 89.8166 119.141C91.4173 120.626 92.6324 122.382 93.4617 124.465C94.291 126.529 94.7153 128.863 94.7153 131.429V165.343H84.1656V158.321H84.0306C83.2978 159.767 82.372 161.079 81.2727 162.275C80.1734 163.471 78.7655 164.417 77.0683 165.092C75.3711 165.767 73.2881 166.133 70.8388 166.133V166.114ZM73.4617 157.298C75.8147 157.298 77.7626 156.835 79.3441 155.89C80.9255 154.945 82.1213 153.691 82.9313 152.148C83.7414 150.585 84.1464 148.849 84.1464 146.9V141.538C83.7992 141.75 83.3171 141.981 82.6613 142.193C82.0056 142.406 81.2534 142.618 80.3662 142.83C79.4984 143.042 78.5147 143.235 77.454 143.447C76.3933 143.66 75.3325 143.833 74.2525 143.987C72.7481 144.238 71.3595 144.624 70.048 145.164C68.7559 145.704 67.7144 146.437 66.9622 147.402C66.1908 148.367 65.8243 149.601 65.8243 151.106C65.8243 152.398 66.1329 153.498 66.7501 154.424C67.3672 155.35 68.2544 156.064 69.3923 156.565C70.5302 157.067 71.8802 157.318 73.4424 157.318L73.4617 157.298Z" fill="white"/>
<path d="M110.704 165.304L93.886 115.572H105.207L113.346 141.48C114.195 144.238 115.005 146.997 115.757 149.736C116.528 152.476 117.261 155.215 117.994 157.954H115.41C116.2 155.215 116.972 152.476 117.705 149.736C118.438 146.997 119.209 144.238 120.038 141.48L128.042 115.572H139.228L122.353 165.304H110.704Z" fill="white"/>
<path d="M158.572 166.442C154.059 166.442 150.164 165.323 146.923 163.105C143.683 160.886 141.157 157.8 139.382 153.903C137.608 150.006 136.721 145.531 136.721 140.496C136.721 135.461 137.627 130.928 139.46 127.031C141.273 123.134 143.799 120.067 147.02 117.829C150.241 115.591 153.944 114.453 158.129 114.453C161.35 114.453 164.281 115.07 166.904 116.305C169.527 117.54 171.784 119.334 173.693 121.649C175.583 123.963 177.049 126.703 178.052 129.867C179.054 133.03 179.575 136.503 179.575 140.303V143.544H140.964V135.345H174.233L169.411 137.506C169.411 134.747 168.968 132.336 168.081 130.272C167.193 128.207 165.92 126.626 164.243 125.507C162.584 124.388 160.597 123.828 158.302 123.828C156.007 123.828 154.04 124.388 152.381 125.507C150.723 126.626 149.45 128.207 148.543 130.233C147.637 132.278 147.193 134.709 147.193 137.525V142.656C147.193 145.511 147.637 148.019 148.543 150.199C149.45 152.379 150.761 154.057 152.478 155.253C154.194 156.469 156.297 157.067 158.785 157.067C160.559 157.067 162.14 156.758 163.529 156.141C164.918 155.523 166.075 154.694 167.001 153.614C167.926 152.553 168.582 151.299 168.948 149.89L178.997 149.852C178.437 153.112 177.203 155.986 175.294 158.475C173.384 160.963 170.993 162.893 168.119 164.301C165.245 165.709 162.063 166.404 158.592 166.404L158.572 166.442Z" fill="white"/>
<path d="M225.785 166.442C219.999 166.442 214.85 164.957 210.376 161.967C205.901 158.977 202.391 154.771 199.845 149.35C197.299 143.91 196.026 137.564 196.026 130.272C196.026 122.98 197.299 116.537 199.826 111.096C202.352 105.656 205.863 101.451 210.356 98.4802C214.85 95.4901 219.999 94.0047 225.785 94.0047C229.353 94.0047 232.651 94.6027 235.718 95.7795C238.784 96.9562 241.523 98.6538 243.915 100.834C246.325 103.033 248.293 105.676 249.855 108.801C251.417 111.926 252.458 115.379 252.998 119.218H241.6C241.176 116.961 240.501 114.955 239.575 113.238C238.649 111.502 237.492 110.055 236.142 108.859C234.792 107.663 233.249 106.756 231.513 106.119C229.797 105.483 227.907 105.174 225.882 105.174C222.044 105.174 218.727 106.216 215.969 108.299C213.191 110.383 211.07 113.315 209.566 117.057C208.061 120.819 207.328 125.217 207.328 130.272C207.328 135.326 208.061 139.724 209.546 143.428C211.031 147.151 213.172 150.045 215.949 152.148C218.727 154.231 222.044 155.273 225.882 155.273C227.888 155.273 229.758 154.964 231.475 154.347C233.191 153.729 234.753 152.823 236.123 151.646C237.492 150.45 238.649 148.984 239.575 147.267C240.501 145.531 241.176 143.563 241.6 141.325H252.998C252.458 145.164 251.417 148.617 249.855 151.704C248.293 154.79 246.325 157.433 243.915 159.613C241.504 161.793 238.784 163.471 235.718 164.648C232.651 165.825 229.334 166.423 225.785 166.423V166.442Z" fill="white"/>
<path d="M276.277 166.442C271.86 166.442 268.003 165.343 264.686 163.163C261.369 160.983 258.784 157.954 256.952 154.077C255.12 150.199 254.194 145.685 254.194 140.534C254.194 135.384 255.12 130.792 256.952 126.876C258.784 122.96 261.369 119.893 264.686 117.713C268.003 115.533 271.86 114.434 276.277 114.434C280.694 114.434 284.532 115.533 287.849 117.713C291.147 119.893 293.731 122.941 295.583 126.876C297.434 130.792 298.36 135.345 298.36 140.534C298.36 145.724 297.434 150.199 295.583 154.077C293.731 157.954 291.147 160.983 287.849 163.163C284.551 165.343 280.694 166.442 276.277 166.442ZM276.277 156.546C278.572 156.546 280.559 155.89 282.236 154.597C283.914 153.286 285.226 151.434 286.132 149.042C287.039 146.65 287.502 143.795 287.502 140.496C287.502 137.197 287.039 134.303 286.132 131.892C285.226 129.481 283.914 127.629 282.236 126.336C280.559 125.024 278.572 124.388 276.277 124.388C273.982 124.388 271.995 125.044 270.318 126.336C268.64 127.648 267.328 129.5 266.422 131.892C265.496 134.303 265.052 137.158 265.052 140.496C265.052 143.833 265.515 146.688 266.422 149.061C267.347 151.453 268.64 153.286 270.298 154.597C271.957 155.909 273.963 156.546 276.277 156.546Z" fill="white"/>
<path d="M312.111 137.197V165.323H301.388V115.591H311.899V128.207H309.777C311.243 123.79 313.287 120.414 315.891 118.08C318.495 115.765 321.754 114.588 325.611 114.588C328.755 114.588 331.513 115.34 333.924 116.826C336.335 118.311 338.205 120.53 339.555 123.443C340.906 126.356 341.581 129.963 341.581 134.226V165.304H330.857V136.097C330.857 132.452 330.067 129.693 328.504 127.802C326.942 125.912 324.724 124.986 321.87 124.986C319.98 124.986 318.302 125.41 316.836 126.259C315.37 127.108 314.213 128.439 313.365 130.233C312.516 132.046 312.092 134.361 312.092 137.178L312.111 137.197Z" fill="white"/>
<path d="M364.358 166.539C360.693 166.539 357.415 165.902 354.541 164.629C351.667 163.356 349.372 161.484 347.617 158.996C345.862 156.507 344.879 153.498 344.647 149.948L355.197 149.91C355.428 152.36 356.296 154.25 357.82 155.581C359.343 156.912 361.446 157.588 364.126 157.588C366.807 157.588 368.716 157.028 370.202 155.89C371.687 154.752 372.419 153.324 372.419 151.55C372.419 150.045 371.879 148.829 370.78 147.923C369.7 147.016 368.196 146.341 366.306 145.897L358.63 144.161C354.367 143.158 351.127 141.46 348.929 139.049C346.73 136.638 345.631 133.57 345.631 129.789C345.631 126.741 346.364 124.079 347.829 121.784C349.295 119.488 351.397 117.694 354.097 116.421C356.817 115.128 359.999 114.492 363.683 114.492C367.366 114.492 370.472 115.167 373.21 116.517C375.949 117.868 378.109 119.777 379.671 122.247C381.233 124.716 382.063 127.648 382.159 131.024L372.111 131.063C372.092 128.825 371.32 126.992 369.816 125.526C368.311 124.06 366.344 123.327 363.876 123.327C361.407 123.327 359.671 123.925 358.302 125.102C356.933 126.278 356.238 127.706 356.238 129.404C356.238 130.889 356.778 132.085 357.839 133.03C358.9 133.975 360.365 134.67 362.198 135.094L370.24 136.927C374.676 137.969 377.935 139.589 380.038 141.827C382.12 144.065 383.181 146.978 383.181 150.585C383.181 153.845 382.371 156.662 380.77 159.034C379.17 161.407 376.932 163.24 374.078 164.552C371.224 165.863 367.964 166.5 364.281 166.5L364.358 166.539Z" fill="white"/>
<path d="M406.036 166.442C401.523 166.442 397.627 165.323 394.387 163.105C391.147 160.886 388.62 157.8 386.846 153.903C385.071 150.006 384.184 145.531 384.184 140.496C384.184 135.461 385.091 130.928 386.923 127.031C388.736 123.134 391.262 120.067 394.483 117.829C397.704 115.591 401.407 114.453 405.592 114.453C408.813 114.453 411.744 115.07 414.367 116.305C416.99 117.54 419.247 119.334 421.156 121.649C423.046 123.963 424.512 126.703 425.515 129.867C426.518 133.03 427.038 136.503 427.038 140.303V143.544H388.427V135.345H421.696L416.875 137.506C416.875 134.747 416.431 132.336 415.544 130.272C414.657 128.207 413.384 126.626 411.706 125.507C410.047 124.388 408.061 123.828 405.766 123.828C403.471 123.828 401.503 124.388 399.845 125.507C398.186 126.626 396.913 128.207 396.007 130.233C395.1 132.278 394.657 134.709 394.657 137.525V142.656C394.657 145.511 395.1 148.019 396.007 150.199C396.913 152.379 398.225 154.057 399.941 155.253C401.658 156.469 403.76 157.067 406.248 157.067C408.022 157.067 409.604 156.758 410.992 156.141C412.381 155.523 413.538 154.694 414.464 153.614C415.389 152.553 416.045 151.299 416.412 149.89L426.46 149.852C425.901 153.112 424.666 155.986 422.757 158.475C420.847 160.963 418.456 162.893 415.582 164.301C412.709 165.709 409.526 166.404 406.055 166.404L406.036 166.442Z" fill="white"/>
<path d="M471.397 185H460.674V157.819H460.539C459.613 159.71 458.475 161.272 457.125 162.526C455.775 163.78 454.271 164.725 452.612 165.343C450.953 165.96 449.141 166.288 447.193 166.288C443.297 166.288 439.883 165.207 436.971 163.066C434.059 160.925 431.802 157.896 430.221 153.999C428.62 150.103 427.829 145.569 427.829 140.38C427.829 135.191 428.639 130.812 430.259 126.915C431.879 123.018 434.155 119.99 437.067 117.829C439.98 115.668 443.335 114.588 447.116 114.588C449.102 114.588 450.934 114.877 452.651 115.475C454.367 116.074 455.891 116.942 457.279 118.08C458.649 119.218 459.806 120.684 460.732 122.478H460.867V115.553H471.416V184.981L471.397 185ZM449.758 156.353C452.072 156.353 454.097 155.697 455.814 154.405C457.53 153.093 458.88 151.241 459.844 148.849C460.809 146.457 461.291 143.621 461.291 140.399C461.291 137.178 460.809 134.361 459.864 131.989C458.919 129.616 457.569 127.764 455.833 126.433C454.097 125.102 452.072 124.426 449.758 124.426C447.443 124.426 445.611 125.044 443.953 126.278C442.294 127.513 440.982 129.326 440.057 131.699C439.131 134.072 438.668 136.966 438.668 140.38C438.668 143.795 439.131 146.707 440.057 149.061C440.982 151.434 442.294 153.247 443.953 154.482C445.611 155.716 447.559 156.334 449.758 156.334V156.353Z" fill="white"/>
<path d="M492.458 166.288C489.353 166.288 486.595 165.535 484.165 164.05C481.754 162.565 479.864 160.346 478.533 157.414C477.183 154.482 476.527 150.894 476.527 146.65V115.572H487.25V144.778C487.25 148.386 488.041 151.144 489.623 153.035C491.204 154.925 493.403 155.89 496.238 155.89C498.109 155.89 499.767 155.466 501.252 154.617C502.737 153.768 503.895 152.437 504.743 150.604C505.592 148.791 506.016 146.476 506.016 143.679V115.553H516.739V165.285H506.228L506.19 152.668H508.311C506.865 157.067 504.84 160.423 502.236 162.777C499.613 165.111 496.373 166.288 492.477 166.288H492.458Z" fill="white"/>
<path d="M541.676 166.442C537.163 166.442 533.268 165.323 530.028 163.105C526.787 160.886 524.261 157.8 522.487 153.903C520.712 150.006 519.825 145.531 519.825 140.496C519.825 135.461 520.732 130.928 522.564 127.031C524.377 123.134 526.903 120.067 530.124 117.829C533.345 115.591 537.048 114.453 541.233 114.453C544.454 114.453 547.385 115.07 550.008 116.305C552.631 117.54 554.888 119.334 556.797 121.649C558.687 123.963 560.153 126.703 561.156 129.867C562.159 133.03 562.679 136.503 562.679 140.303V143.544H524.068V135.345H557.337L552.515 137.506C552.515 134.747 552.072 132.336 551.185 130.272C550.298 128.207 549.025 126.626 547.347 125.507C545.688 124.388 543.702 123.828 541.407 123.828C539.111 123.828 537.144 124.388 535.486 125.507C533.827 126.626 532.554 128.207 531.648 130.233C530.741 132.278 530.298 134.709 530.298 137.525V142.656C530.298 145.511 530.741 148.019 531.648 150.199C532.554 152.379 533.866 154.057 535.582 155.253C537.299 156.469 539.401 157.067 541.889 157.067C543.663 157.067 545.244 156.758 546.633 156.141C548.022 155.523 549.179 154.694 550.105 153.614C551.03 152.553 551.686 151.299 552.053 149.89L562.101 149.852C561.541 153.112 560.307 155.986 558.398 158.475C556.488 160.963 554.097 162.893 551.223 164.301C548.35 165.709 545.167 166.404 541.696 166.404L541.676 166.442Z" fill="white"/>
<path d="M576.276 137.197V165.323H565.553V115.591H576.064V128.207H573.943C575.408 123.79 577.453 120.414 580.056 118.08C582.66 115.765 585.919 114.588 589.777 114.588C592.92 114.588 595.678 115.34 598.089 116.826C600.5 118.311 602.371 120.53 603.721 123.443C605.071 126.356 605.746 129.963 605.746 134.226V165.304H595.023V136.097C595.023 132.452 594.232 129.693 592.67 127.802C591.107 125.912 588.889 124.986 586.035 124.986C584.145 124.986 582.467 125.41 580.982 126.259C579.497 127.108 578.359 128.439 577.511 130.233C576.662 132.046 576.238 134.361 576.238 137.178L576.276 137.197Z" fill="white"/>
<path d="M630.76 166.442C626.382 166.442 622.544 165.343 619.246 163.143C615.948 160.944 613.402 157.896 611.57 153.999C609.738 150.103 608.832 145.608 608.832 140.534C608.832 135.461 609.738 130.889 611.57 126.954C613.383 123.018 615.948 119.951 619.246 117.752C622.544 115.553 626.382 114.453 630.76 114.453C633.537 114.453 636.103 114.916 638.494 115.842C640.886 116.768 642.968 118.08 644.743 119.777C646.517 121.475 647.964 123.462 649.044 125.758C650.124 128.053 650.779 130.6 651.011 133.397H640.538C640.346 132.085 639.979 130.87 639.478 129.751C638.976 128.632 638.301 127.687 637.472 126.876C636.643 126.066 635.678 125.449 634.579 125.024C633.48 124.581 632.226 124.369 630.857 124.369C628.542 124.369 626.536 125.044 624.859 126.375C623.181 127.706 621.908 129.577 621.021 131.989C620.133 134.4 619.709 137.236 619.709 140.534C619.709 143.833 620.153 146.65 621.021 149.061C621.888 151.472 623.161 153.344 624.839 154.636C626.498 155.948 628.504 156.584 630.857 156.584C632.265 156.584 633.518 156.372 634.579 155.948C635.64 155.523 636.585 154.906 637.356 154.115C638.128 153.305 638.783 152.36 639.304 151.241C639.825 150.122 640.21 148.887 640.461 147.498H651.049C650.818 150.238 650.182 152.746 649.121 155.06C648.06 157.375 646.633 159.362 644.82 161.06C643.007 162.758 640.905 164.089 638.533 165.034C636.141 165.998 633.557 166.461 630.76 166.461V166.442Z" fill="white"/>
<path d="M673.634 166.442C669.121 166.442 665.225 165.323 661.985 163.105C658.745 160.886 656.218 157.8 654.444 153.903C652.669 150.006 651.782 145.531 651.782 140.496C651.782 135.461 652.689 130.928 654.521 127.031C656.334 123.134 658.86 120.067 662.081 117.829C665.302 115.591 669.005 114.453 673.19 114.453C676.411 114.453 679.343 115.07 681.965 116.305C684.588 117.54 686.845 119.334 688.754 121.649C690.644 123.963 692.11 126.703 693.113 129.867C694.116 133.03 694.637 136.503 694.637 140.303V143.544H656.025V135.345H689.294L684.473 137.506C684.473 134.747 684.029 132.336 683.142 130.272C682.255 128.207 680.982 126.626 679.304 125.507C677.645 124.388 675.659 123.828 673.364 123.828C671.069 123.828 669.101 124.388 667.443 125.507C665.784 126.626 664.511 128.207 663.605 130.233C662.698 132.278 662.255 134.709 662.255 137.525V142.656C662.255 145.511 662.698 148.019 663.605 150.199C664.511 152.379 665.823 154.057 667.539 155.253C669.256 156.469 671.377 157.067 673.846 157.067C675.62 157.067 677.202 156.758 678.59 156.141C679.979 155.523 681.136 154.694 682.062 153.614C682.988 152.553 683.643 151.299 684.01 149.89L694.058 149.852C693.499 153.112 692.264 155.986 690.355 158.475C688.446 160.963 686.054 162.893 683.181 164.301C680.307 165.709 677.125 166.404 673.653 166.404L673.634 166.442Z" fill="white"/>
<path d="M715.099 166.539C711.435 166.539 708.156 165.902 705.283 164.629C702.409 163.356 700.114 161.484 698.359 158.996C696.604 156.507 695.62 153.498 695.389 149.948L705.938 149.91C706.17 152.36 707.038 154.25 708.561 155.581C710.085 156.912 712.187 157.588 714.868 157.588C717.549 157.588 719.458 157.028 720.943 155.89C722.428 154.752 723.161 153.324 723.161 151.55C723.161 150.045 722.621 148.829 721.522 147.923C720.442 147.016 718.937 146.341 717.047 145.897L709.371 144.161C705.109 143.158 701.869 141.46 699.67 139.049C697.472 136.638 696.372 133.57 696.372 129.789C696.372 126.741 697.105 124.079 698.571 121.784C700.037 119.488 702.139 117.694 704.839 116.421C707.558 115.128 710.741 114.492 714.424 114.492C718.108 114.492 721.213 115.167 723.952 116.517C726.69 117.868 728.851 119.777 730.413 122.247C731.975 124.716 732.804 127.648 732.901 131.024L722.852 131.063C722.833 128.825 722.062 126.992 720.557 125.526C719.053 124.06 717.086 123.327 714.617 123.327C712.149 123.327 710.413 123.925 709.044 125.102C707.674 126.278 706.98 127.706 706.98 129.404C706.98 130.889 707.52 132.085 708.581 133.03C709.641 133.975 711.107 134.67 712.939 135.094L720.982 136.927C725.418 137.969 728.677 139.589 730.779 141.827C732.862 144.065 733.923 146.978 733.923 150.585C733.923 153.845 733.113 156.662 731.512 159.034C729.911 161.407 727.674 163.24 724.82 164.552C721.965 165.863 718.706 166.5 715.022 166.5L715.099 166.539Z" fill="white"/>
<path d="M379.729 3.83889C378.032 15.0469 340.713 70.5469 330.78 93.2523C329.642 95.7987 328.504 99.5026 328.504 103.052C328.504 108.454 331.34 112.273 336.74 113.411C338.167 113.701 337.453 114.685 335.891 114.414C327.656 113.855 322.989 108.319 322.989 98.9432C322.989 96.6668 323.413 94.2555 323.991 91.4197C326.402 82.3337 336.913 65.1648 348.119 48.1309C345.419 47.9958 343.297 47.9958 341.311 47.9958C338.9 47.9958 335.91 47.9958 332.805 47.8608C307.829 74.4051 276.181 102.223 247.81 102.223C233.346 102.223 224.956 94.9885 224.956 82.6423C224.956 61.7696 250.067 31.4056 286.113 31.4056C297.473 31.4056 303.702 35.804 303.702 43.8869C303.702 57.0819 284.975 76.3921 262.545 76.3921C255.872 76.3921 250.626 73.1319 250.202 68.1549H251.185C252.188 72.1288 258.707 72.2638 262.545 72.2638C284.532 72.2638 302.275 55.0949 302.275 43.3081C302.275 36.6335 296.605 32.8139 286.094 32.8139C252.613 32.8139 228.196 60.207 228.196 78.6684C228.196 89.0276 235.718 94.8535 248.91 94.8535C271.899 94.8535 295.448 79.5172 316.18 60.94C318.032 57.9692 319.016 54.8441 319.016 52.4327C319.016 50.3107 318.302 48.8832 316.605 48.1694C316.045 48.1694 315.178 48.3045 314.329 48.3045C313.615 48.3045 312.767 47.8801 312.767 47.1663C312.767 46.4526 313.615 46.0282 314.464 46.0282C317.01 46.0282 318.861 46.1632 320.558 46.1632C321.986 46.2982 324.531 46.2982 327.521 46.2982H331.629C354.753 23.0141 372.072 0.0192871 377.183 0.0192871C378.88 0.0192871 380.018 1.71689 379.729 3.85818V3.83889ZM330.067 47.8415H329.777C325.669 47.8415 321.966 47.9765 319.98 47.9765C319.556 48.1116 319.131 48.1116 318.553 48.1116C319.556 48.9604 319.98 50.3879 319.98 52.3749C319.98 54.3618 319.421 56.6382 318.418 58.8952C322.526 55.2106 326.364 51.6611 330.047 47.8222L330.067 47.8415ZM349.218 46.414C362.699 25.8305 376.605 6.09593 377.453 1.85193C377.588 1.29249 377.453 1.29249 377.164 1.29249C372.902 1.29249 356.296 23.0141 334.445 46.2789C337.569 46.2789 340.693 46.1439 343.394 46.1439C344.821 46.0089 346.364 46.0089 348.215 46.0089C348.639 46.0089 349.064 46.1439 349.218 46.4333V46.414Z" fill="white"/>
</g>
<defs>
<clipPath id="clip0_1_4">
<rect width="734" height="185" fill="white"/>
</clipPath>
</defs>
</svg>
